<svg xmlns="http://www.w3.org/2000/svg" viewBox="0 0 163.16 137.22"><title>Asset 1</title><g id="Layer_2" data-name="Layer 2"><g id="Layer_1-2" data-name="Layer 1"><path d="M45.73,65.21c4.13,24.68,8,47.84,12,71.56H0V.18H15.78C33.91.2,52.06-.39,70.16.45c14.81.69,29.1,4.4,40,15.55C119,24.94,124,35.44,122,48.43c-1.35,8.94-7.31,14.21-15.18,18.67,5.43,6.29,10.51,12.38,15.8,18.28,12.22,13.64,24.55,27.18,36.8,40.79a16.21,16.21,0,0,1,2.84,4.07c2,4.58.5,6.9-4.44,6.9-20.82,0-41.65,0-62.47.08-3,0-4.6-.89-6.24-3.55-13.52-21.94-27.28-43.73-41-65.55C47.77,67.5,47.21,67,45.73,65.21ZM42.66,43.13c7.06,0,13.71.36,20.28-.19,2.4-.2,4.63-2.56,6.93-3.93-2-1.73-3.9-4.66-6.12-5C56.49,33,49.11,33,41.1,32.52Z"/></g></g></svg>